#!OML:ASF H:\Dans Jumps\Project 1\Capture day 1\Session 1\subject.ASF
:FULLY-SPECIFIED
:DEGREES
121
root 0.563149 17.4042 -14.4752 6.83085 -0.386038 -1.58951
lowerback 1.30645 -0.710433 0.37666
upperback 4.2507 -1.00832 1.89854
thorax 3.66762 -0.527099 1.72469
lowerneck -10.7502 0.511648 -1.7648
upperneck 29.191 1.16281 -0.151089
head 11.2061 0.310644 0.395924
rclavicle -5.76476e-015 1.98785e-015
rhumerus -25.6479 -15.3123 -79.5964
rradius 25.3098
rwrist 29.5822
rhand -18.6831 -26.3904
rfingers 7.12502
rthumb 7.611 -56.2334
lclavicle -5.76476e-015 1.98785e-015
lhumerus -20.6627 -0.0661883 87.787
lradius 18.4128
lwrist 5.81668
lhand -26.0973 -3.78303
lfingers 7.12502
lthumb 0.451793 26.1962
rfemur -18.0395 -2.10467 20.026
rtibia 28.3169
rfoot -15.6411 -3.77871
rtoes 8.42056
lfemur -17.3515 8.39671 -18.4858
ltibia 26.6475
lfoot -13.3523 6.31506
ltoes -2.34532
122
root 0.563111 17.4031 -14.4752 6.82669 -0.380009 -1.59457
lowerback 1.30398 -0.712653 0.377244
upperback 4.25507 -1.01146 1.89992
thorax 3.67367 -0.528696 1.72568
lowerneck -10.7731 0.513191 -1.75272
upperneck 29.2239 1.16561 -0.159438
head 11.2235 0.31181 0.391375
rclavicle 5.56597e-015 1.98785e-015
rhumerus -25.6455 -15.3004 -79.5972
rradius 25.3225
rwrist 29.5635
rhand -18.6763 -26.3986
rfingers 7.12502
rthumb 7.61762 -56.2414
lclavicle 5.56597e-015 1.98785e-015
lhumerus -20.6676 -0.0758859 87.7969
lradius 18.4196
lwrist 5.82452
lhand -26.0949 -3.78576
lfingers 7.12502
lthumb 0.454059 26.1935
rfemur -18.0484 -2.11385 20.0322
rtibia 28.3434
rfoot -15.6518 -3.77934
rtoes 8.40482
lfemur -17.3671 8.3927 -18.48
ltibia 26.6849
lfoot -13.3654 6.32433
ltoes -2.36745
123
root 0.56305 17.4021 -14.4751 6.82195 -0.37426 -1.59931
lowerback 1.30139 -0.714065 0.379791
upperback 4.25967 -1.01346 1.89903
thorax 3.67991 -0.529622 1.72324
lowerneck -10.7952 0.513192 -1.73978
upperneck 29.2544 1.16532 -0.165584
head 11.2399 0.311966 0.387077
rclavicle -2.5842e-015 2.10712e-014
rhumerus -25.6426 -15.2889 -79.6014
rradius 25.3384
rwrist 29.536
rhand -18.6601 -26.4192
rfingers 7.12502
rthumb 7.63319 -56.2615
lclavicle -2.5842e-015 2.10712e-014
lhumerus -20.6719 -0.0921943 87.8055
lradius 18.4304
lwrist 5.83384
lhand -26.0835 -3.77582
lfingers 7.12502
lthumb 0.465089 26.2034
rfemur -18.0564 -2.12267 20.038
rtibia 28.3688
rfoot -15.6614 -3.78099
rtoes 8.38088
lfemur -17.382 8.38676 -18.4745
ltibia 26.7217
lfoot -13.3763 6.33546
ltoes -2.39361
124
root 0.56298 17.4011 -14.4751 6.81665 -0.370141 -1.60594
lowerback 1.29925 -0.714776 0.383834
upperback 4.26419 -1.01456 1.89853
thorax 3.68577 -0.530046 1.72041
lowerneck -10.8185 0.512563 -1.72975
upperneck 29.287 1.16388 -0.168435
head 11.2572 0.311658 0.384353
rclavicle 8.94531e-016 -2.8625e-014
rhumerus -25.6366 -15.2813 -79.6054
rradius 25.3534
rwrist 29.5096
rhand -18.6406 -26.4435
rfingers 7.12502
rthumb 7.65205 -56.285
lclavicle 8.94531e-016 -2.8625e-014
lhumerus -20.6778 -0.111345 87.8147
lradius 18.4463
lwrist 5.84464
lhand -26.0629 -3.75468
lfingers 7.12502
lthumb 0.485017 26.2245
rfemur -18.0637 -2.12899 20.0458
rtibia 28.3925
rfoot -15.6696 -3.78373
rtoes 8.34869
lfemur -17.3959 8.38011 -18.4667
ltibia 26.758
lfoot -13.3867 6.3482
ltoes -2.41588
125
root 0.562865 17.4001 -14.4751 6.80951 -0.367856 -1.61268
lowerback 1.29868 -0.714664 0.38663
upperback 4.26935 -1.01455 1.89866
thorax 3.69141 -0.529979 1.71895
lowerneck -10.8485 0.511991 -1.7219
upperneck 29.3243 1.16269 -0.169385
head 11.2778 0.311391 0.382786
rclavicle -2.18663e-015 -1.23246e-014
rhumerus -25.6287 -15.2751 -79.6084
rradius 25.37
rwrist 29.4836
rhand -18.6209 -26.4757
rfingers 7.12502
rthumb 7.67103 -56.3166
lclavicle -2.18663e-015 -1.23246e-014
lhumerus -20.6826 -0.133118 87.8258
lradius 18.4655
lwrist 5.85489
lhand -26.0462 -3.72842
lfingers 7.12502
lthumb 0.501076 26.2507
rfemur -18.0684 -2.12956 20.0535
rtibia 28.4148
rfoot -15.6778 -3.78931
rtoes 8.31643
lfemur -17.4071 8.37455 -18.4585
ltibia 26.7929
lfoot -13.3969 6.36215
ltoes -2.43783
126
root 0.56272 17.3992 -14.4751 6.80043 -0.365081 -1.61742
lowerback 1.29993 -0.714174 0.385917
upperback 4.27397 -1.01397 1.89924
thorax 3.69552 -0.529754 1.71997
lowerneck -10.8803 0.509956 -1.71573
upperneck 29.365 1.15957 -0.169287
head 11.2999 0.310164 0.381665
rclavicle -9.93923e-016 3.97569e-015
rhumerus -25.6198 -15.2768 -79.6075
rradius 25.3832
rwrist 29.4652
rhand -18.6015 -26.5039
rfingers 7.12502
rthumb 7.68981 -56.3441
lclavicle -9.93923e-016 3.97569e-015
lhumerus -20.688 -0.158999 87.8393
lradius 18.4862
lwrist 5.86296
lhand -26.04 -3.71993
lfingers 7.12502
lthumb 0.507138 26.2592
rfemur -18.0692 -2.12899 20.059
rtibia 28.4358
rfoot -15.6866 -3.79536
rtoes 8.293
lfemur -17.4144 8.36928 -18.4522
ltibia 26.8252
lfoot -13.4071 6.37494
ltoes -2.45536
127
root 0.562523 17.3984 -14.4751 6.78955 -0.361781 -1.61913
lowerback 1.30307 -0.71402 0.380233
upperback 4.27817 -1.01378 1.90037
thorax 3.69824 -0.529896 1.72434
lowerneck -10.9089 0.506426 -1.71163
upperneck 29.4033 1.15484 -0.169775
head 11.3207 0.307952 0.380463
rclavicle -5.26779e-015 3.97569e-015
rhumerus -25.6102 -15.283 -79.6035
rradius 25.3939
rwrist 29.4567
rhand -18.5881 -26.5242
rfingers 7.12502
rthumb 7.7027 -56.3639
lclavicle -5.26779e-015 3.97569e-015
lhumerus -20.6927 -0.186051 87.8547
lradius 18.5088
lwrist 5.87481
lhand -26.0409 -3.72283
lfingers 7.12502
lthumb 0.506266 26.2563
rfemur -18.0666 -2.12601 20.0611
rtibia 28.4555
rfoot -15.6953 -3.80359
rtoes 8.27508
lfemur -17.4175 8.36423 -18.4488
ltibia 26.8536
lfoot -13.4175 6.38633
ltoes -2.46403
128
root 0.56229 17.3976 -14.4751 6.7773 -0.358079 -1.61867
lowerback 1.30758 -0.713556 0.371994
upperback 4.28182 -1.0131 1.90101
thorax 3.69962 -0.529869 1.72968
lowerneck -10.9348 0.501803 -1.70837
upperneck 29.4404 1.14845 -0.169522
head 11.3403 0.305013 0.379444
rclavicle 2.5842e-015 -1.66979e-014
rhumerus -25.6005 -15.2978 -79.5968
rradius 25.401
rwrist 29.4589
rhand -18.581 -26.5355
rfingers 7.12502
rthumb 7.70956 -56.3749
lclavicle 2.5842e-015 -1.66979e-014
lhumerus -20.6957 -0.216586 87.8708
lradius 18.5318
lwrist 5.88989
lhand -26.0507 -3.73552
lfingers 7.12502
lthumb 0.496816 26.2436
rfemur -18.0612 -2.12198 20.0609
rtibia 28.4739
rfoot -15.7042 -3.81317
rtoes 8.26049
lfemur -17.416 8.35913 -18.4473
ltibia 26.8771
lfoot -13.4279 6.39602
ltoes -2.46385
129
root 0.562033 17.3969 -14.4749 6.76464 -0.351263 -1.61761
lowerback 1.31156 -0.713696 0.364278
upperback 4.28528 -1.01321 1.90071
thorax 3.70111 -0.530195 1.73374
lowerneck -10.956 0.494716 -1.70526
upperneck 29.4717 1.13811 -0.168341
head 11.3569 0.300462 0.37824
rclavicle -3.97569e-015 1.66979e-014
rhumerus -25.5911 -15.3174 -79.5909
rradius 25.4078
rwrist 29.465
rhand -18.5762 -26.5419
rfingers 7.12502
rthumb 7.7142 -56.3812
lclavicle -3.97569e-015 1.66979e-014
lhumerus -20.697 -0.25175 87.8862
lradius 18.5555
lwrist 5.91103
lhand -26.0603 -3.76705
lfingers 7.12502
lthumb 0.48747 26.2121
rfemur -18.0531 -2.12173 20.0603
rtibia 28.4904
rfoot -15.7141 -3.82165
rtoes 8.25463
lfemur -17.4113 8.35354 -18.4461
ltibia 26.8957
lfoot -13.437 6.403
ltoes -2.46142
130
root 0.561709 17.3963 -14.4749 6.75294 -0.343081 -1.61635
lowerback 1.31399 -0.71387 0.356848
upperback 4.28833 -1.01336 1.89964
thorax 3.70302 -0.530515 1.73681
lowerneck -10.9717 0.486569 -1.70532
upperneck 29.4979 1.12545 -0.162631
head 11.3703 0.295137 0.378906
rclavicle -5.56597e-015 9.54166e-015
rhumerus -25.5813 -15.3393 -79.5867
rradius 25.4137
rwrist 29.4728
rhand -18.5835 -26.5424
rfingers 7.12502
rthumb 7.7072 -56.382
lclavicle -5.56597e-015 9.54166e-015
lhumerus -20.6968 -0.28836 87.9002
lradius 18.5802
lwrist 5.93487
lhand -26.0737 -3.80766
lfingers 7.12502
lthumb 0.474552 26.1716
rfemur -18.0447 -2.12323 20.06
rtibia 28.5041
rfoot -15.7234 -3.8301
rtoes 8.25184
lfemur -17.4061 8.34794 -18.4449
ltibia 26.9105
lfoot -13.4463 6.40743
ltoes -2.458
131
root 0.561399 17.3958 -14.4747 6.7436 -0.332771 -1.61418
lowerback 1.31155 -0.71407 0.351267
upperback 4.2908 -1.01356 1.89671
thorax 3.70702 -0.530764 1.73688
lowerneck -10.9849 0.478184 -1.70679
upperneck 29.5228 1.11162 -0.153236
head 11.3826 0.289603 0.381
rclavicle 0 -6.75868e-015
rhumerus -25.5729 -15.3592 -79.5857
rradius 25.4217
rwrist 29.4763
rhand -18.5939 -26.5462
rfingers 7.12502
rthumb 7.69714 -56.3861
lclavicle 0 -6.75868e-015
lhumerus -20.6945 -0.330691 87.9128
lradius 18.6054
lwrist 5.96195
lhand -26.0878 -3.85083
lfingers 7.12502
lthumb 0.460921 26.1284
rfemur -18.0367 -2.12919 20.0589
rtibia 28.514
rfoot -15.732 -3.83677
rtoes 8.24832
lfemur -17.4023 8.34121 -18.445
ltibia 26.9235
lfoot -13.4543 6.41027
ltoes -2.46158
132
root 0.561063 17.3954 -14.4746 6.73695 -0.322853 -1.61515
lowerback 1.30585 -0.713883 0.349412
upperback 4.29296 -1.01334 1.89413
thorax 3.71245 -0.530681 1.73518
lowerneck -10.9981 0.469405 -1.71236
upperneck 29.547 1.09681 -0.13925
head 11.3947 0.283745 0.385365
rclavicle 5.46658e-015 -2.38542e-015
rhumerus -25.5611 -15.3777 -79.5874
rradius 25.4285
rwrist 29.4769
rhand -18.6077 -26.5492
rfingers 7.12502
rthumb 7.68378 -56.3896
lclavicle 5.46658e-015 -2.38542e-015
lhumerus -20.6898 -0.375071 87.9247
lradius 18.6308
lwrist 5.99327
lhand -26.1012 -3.89301
lfingers 7.12502
lthumb 0.447987 26.0863
rfemur -18.0308 -2.13463 20.0616
rtibia 28.5202
rfoot -15.7386 -3.84371
rtoes 8.23622
lfemur -17.4022 8.33529 -18.4419
ltibia 26.936
lfoot -13.4594 6.41264
ltoes -2.47186
